<svg width="852" height="48" viewBox="0 0 852 48" fill="none" xmlns="http://www.w3.org/2000/svg">
<path d="M48.2375 25.6501C48.2375 30.9734 44.0732 34.896 38.9625 34.896C33.8519 34.896 29.6875 30.9734 29.6875 25.6501C29.6875 20.2894 33.8519 16.4043 38.9625 16.4043C44.0732 16.4043 48.2375 20.2894 48.2375 25.6501ZM44.1774 25.6501C44.1774 22.3236 41.7638 20.0476 38.9625 20.0476C36.1613 20.0476 33.7477 22.3236 33.7477 25.6501C33.7477 28.9433 36.1613 31.2527 38.9625 31.2527C41.7638 31.2527 44.1774 28.9391 44.1774 25.6501Z" fill="#89898B"/>
<path d="M68.2468 25.6501C68.2468 30.9734 64.0824 34.896 58.9718 34.896C53.8612 34.896 49.6968 30.9734 49.6968 25.6501C49.6968 20.2936 53.8612 16.4043 58.9718 16.4043C64.0824 16.4043 68.2468 20.2894 68.2468 25.6501ZM64.1867 25.6501C64.1867 22.3236 61.7731 20.0476 58.9718 20.0476C56.1705 20.0476 53.7569 22.3236 53.7569 25.6501C53.7569 28.9433 56.1705 31.2527 58.9718 31.2527C61.7731 31.2527 64.1867 28.9391 64.1867 25.6501Z" fill="#89898B"/>
<path d="M87.4224 16.9629V33.562C87.4224 40.3901 83.3956 43.1789 78.6351 43.1789C74.1539 43.1789 71.4569 40.1817 70.4398 37.7306L73.9747 36.2591C74.6041 37.7639 76.1465 39.5397 78.631 39.5397C81.6782 39.5397 83.5665 37.6597 83.5665 34.1206V32.7909H83.4248C82.516 33.9122 80.7652 34.8918 78.5559 34.8918C73.933 34.8918 69.6978 30.865 69.6978 25.6835C69.6978 20.4645 73.933 16.4043 78.5559 16.4043C80.7611 16.4043 82.5119 17.3839 83.4248 18.4719H83.5665V16.9671H87.4224V16.9629ZM83.8541 25.6835C83.8541 22.4278 81.6823 20.0476 78.9186 20.0476C76.1173 20.0476 73.7704 22.4278 73.7704 25.6835C73.7704 28.9058 76.1173 31.2527 78.9186 31.2527C81.6823 31.2527 83.8541 28.9058 83.8541 25.6835Z" fill="#89898B"/>
<path d="M93.779 7.23364V34.3292H89.8188V7.23364H93.779Z" fill="#89898B"/>
<path d="M109.211 28.6932L112.363 30.7941C111.346 32.299 108.895 34.8918 104.659 34.8918C99.407 34.8918 95.4844 30.8317 95.4844 25.646C95.4844 20.1477 99.4403 16.4001 104.205 16.4001C109.003 16.4001 111.35 20.2185 112.117 22.282L112.538 23.3324L100.178 28.4514C101.124 30.3064 102.596 31.2527 104.659 31.2527C106.727 31.2527 108.161 30.2356 109.211 28.6932ZM99.5112 25.3667L107.773 21.936C107.319 20.7813 105.952 19.9768 104.343 19.9768C102.279 19.9768 99.407 21.7984 99.5112 25.3667Z" fill="#89898B"/>
<path d="M14.6975 23.2447V19.3221H27.9159C28.0451 20.0058 28.1118 20.8145 28.1118 21.6899C28.1118 24.6329 27.3073 28.272 24.7145 30.8648C22.1925 33.491 18.9702 34.8917 14.7016 34.8917C6.78972 34.8917 0.136719 28.4471 0.136719 20.5352C0.136719 12.6233 6.78972 6.17871 14.7016 6.17871C19.0786 6.17871 22.1967 7.89615 24.5394 10.1347L21.7715 12.9026C20.0916 11.3269 17.8155 10.1013 14.6975 10.1013C8.91985 10.1013 4.40114 14.7576 4.40114 20.5352C4.40114 26.3128 8.91985 30.9691 14.6975 30.9691C18.445 30.9691 20.5793 29.4642 21.9466 28.0969C23.0554 26.9881 23.7849 25.4041 24.0725 23.2406L14.6975 23.2447Z" fill="#89898B"/>
<path d="M224.925 32.4265L226.393 28.995C228.001 30.1854 230.098 30.8155 232.195 30.8155C233.733 30.8155 234.711 30.2205 234.711 29.3103C234.676 26.7891 225.45 28.7499 225.379 22.4113C225.344 19.1898 228.21 16.7037 232.265 16.7037C234.676 16.7037 237.088 17.2992 238.8 18.665L237.428 22.1697C235.853 21.1567 233.907 20.4504 232.055 20.4504C230.797 20.4504 229.958 21.0454 229.958 21.8163C229.993 24.3024 239.29 22.9366 239.394 28.995C239.394 32.2866 236.598 34.5978 232.614 34.5978C229.679 34.5978 226.987 33.8976 224.925 32.4265H224.925ZM283.383 27.7524C283.013 28.4109 282.474 28.9589 281.821 29.3403C281.169 29.7217 280.427 29.9227 279.672 29.9228C277.317 29.9228 275.408 28.0101 275.408 25.6508C275.408 23.2914 277.317 21.3787 279.672 21.3787C280.427 21.3788 281.169 21.5798 281.821 21.9612C282.474 22.3426 283.013 22.8906 283.383 23.5491L287.465 21.2835C285.936 18.5513 283.02 16.7037 279.672 16.7037C274.74 16.7037 270.742 20.7091 270.742 25.6508C270.742 30.5919 274.74 34.5978 279.672 34.5978C283.02 34.5978 285.936 32.7502 287.465 30.018L283.383 27.7524ZM242.043 34.2474H247.146V9.25586H242.043L242.043 34.2474ZM290.042 9.25586V34.2474H295.144V26.76L301.191 34.2474H307.713L300.024 25.3525L307.153 17.0526H300.911L295.144 23.9531V9.25586H290.042ZM262.866 17.0536V19.0851C262.027 17.6841 259.965 16.7037 257.798 16.7037C253.325 16.7037 249.795 20.661 249.795 25.6332C249.795 30.6055 253.325 34.5978 257.798 34.5978C259.965 34.5978 262.027 33.6174 262.866 32.2164V34.2474H267.968V17.0536H262.866ZM262.866 27.787C262.132 29.0125 260.594 29.9223 258.882 29.9223C256.527 29.9223 254.618 28.0101 254.618 25.6508C254.618 23.2914 256.527 21.3787 258.882 21.3787C260.594 21.3787 262.132 22.3241 262.866 23.5842V27.787Z" fill="#89898B"/>
<path d="M197.978 8.70361C196.324 8.70361 194.984 10.0469 194.984 11.7035C194.984 12.0971 195.061 12.4868 195.211 12.8506C195.361 13.2143 195.582 13.5449 195.86 13.8235C196.138 14.1021 196.468 14.3231 196.831 14.4741C197.195 14.6251 197.584 14.703 197.978 14.7034H200.972V11.7035C200.973 10.9086 200.658 10.1461 200.096 9.58348C199.535 9.0209 198.773 8.70441 197.978 8.70361ZM197.978 16.7033H189.994C188.34 16.7033 187 18.0466 187 19.7037C187 21.3603 188.34 22.7036 189.994 22.7036H197.979C199.632 22.7036 200.972 21.3603 200.972 19.7037C200.972 18.0466 199.632 16.7033 197.978 16.7033Z" fill="#89898B"/>
<path d="M216.941 19.7037C216.941 18.0466 215.6 16.7033 213.947 16.7033C212.293 16.7033 210.953 18.0466 210.953 19.7037V22.7036H213.947C214.742 22.7028 215.504 22.3863 216.065 21.8237C216.627 21.2612 216.942 20.4986 216.941 19.7037ZM208.957 19.7037V11.7035C208.958 10.9086 208.643 10.1461 208.081 9.58348C207.52 9.0209 206.757 8.70441 205.963 8.70361C204.309 8.70361 202.969 10.0469 202.969 11.7035V19.7032C202.969 21.3608 204.309 22.7041 205.963 22.7041C206.757 22.7033 207.52 22.3868 208.081 21.8242C208.643 21.2617 208.958 20.4991 208.957 19.7042" fill="#89898B"/>
<path d="M205.963 38.7036C206.757 38.7028 207.52 38.3863 208.081 37.8237C208.643 37.2612 208.958 36.4986 208.957 35.7037C208.958 34.9088 208.643 34.1463 208.081 33.5837C207.52 33.0211 206.757 32.7046 205.963 32.7038H202.969V35.7037C202.969 37.3603 204.309 38.7036 205.963 38.7036ZM205.963 30.7039H213.947C215.6 30.7039 216.941 29.3606 216.941 27.7035C216.942 26.9086 216.627 26.1461 216.065 25.5835C215.504 25.0209 214.742 24.7044 213.947 24.7036H205.963C204.309 24.7036 202.969 26.0469 202.969 27.7035C202.968 28.0971 203.045 28.4868 203.196 28.8506C203.346 29.2143 203.566 29.5449 203.844 29.8235C204.122 30.1021 204.453 30.3231 204.816 30.4741C205.179 30.6251 205.569 30.703 205.963 30.7034" fill="#89898B"/>
<path d="M187 27.7035C187 28.0971 187.077 28.4868 187.227 28.8506C187.377 29.2143 187.598 29.5449 187.876 29.8235C188.154 30.1021 188.484 30.3231 188.847 30.4741C189.211 30.6251 189.6 30.703 189.994 30.7034C190.789 30.7026 191.551 30.3861 192.112 29.8235C192.674 29.261 192.989 28.4984 192.988 27.7035V24.7036H189.994C188.34 24.7036 187 26.0469 187 27.7035ZM194.984 27.7035V35.7032C194.984 37.3603 196.324 38.7036 197.978 38.7036C198.773 38.7028 199.535 38.3863 200.096 37.8237C200.658 37.2612 200.973 36.4986 200.972 35.7037V27.7035C200.973 27.3099 200.896 26.9201 200.745 26.5563C200.595 26.1925 200.375 25.8619 200.097 25.5833C199.819 25.3048 199.488 25.0837 199.125 24.9327C198.761 24.7818 198.372 24.7039 197.978 24.7036C196.324 24.7036 194.984 26.0469 194.984 27.7035Z" fill="#89898B"/>
<path fill-rule="evenodd" clip-rule="evenodd" d="M449.935 37.8069C443.571 42.4973 434.348 44.9998 426.406 44.9998C415.271 44.9998 405.247 40.8814 397.663 34.0316C397.067 33.493 397.601 32.7589 398.316 33.1784C406.501 37.9403 416.62 40.8051 427.074 40.8051C434.124 40.8051 441.879 39.3465 449.01 36.3196C450.087 35.862 450.988 37.0251 449.935 37.8069Z" fill="#89898B"/>
<path fill-rule="evenodd" clip-rule="evenodd" d="M452.581 34.78C451.77 33.7409 447.204 34.2891 445.154 34.5322C444.53 34.6084 444.434 34.065 444.997 33.6741C448.634 31.1144 454.602 31.8533 455.298 32.7113C455.993 33.574 455.116 39.5563 451.699 42.4115C451.174 42.8501 450.674 42.6165 450.907 42.035C451.675 40.1187 453.396 35.8239 452.581 34.78Z" fill="#89898B"/>
<path fill-rule="evenodd" clip-rule="evenodd" d="M445.297 15.6036V13.1154C445.297 12.7388 445.583 12.4862 445.927 12.4862H457.066C457.424 12.4862 457.71 12.7436 457.71 13.1154V15.2461C457.705 15.6036 457.405 16.0708 456.871 16.8096L451.098 25.0513C453.243 24.9988 455.508 25.3182 457.452 26.4145C457.891 26.6624 458.01 27.0247 458.043 27.3822V30.0373C458.043 30.3995 457.643 30.8238 457.224 30.6045C453.796 28.8074 449.244 28.612 445.455 30.6236C445.068 30.8333 444.663 30.4138 444.663 30.0516V27.53C444.663 27.1248 444.668 26.4336 445.073 25.8187L451.761 16.2281H445.941C445.583 16.2281 445.297 15.9754 445.297 15.6036Z" fill="#89898B"/>
<path fill-rule="evenodd" clip-rule="evenodd" d="M404.661 31.1289H401.272C400.948 31.105 400.69 30.8619 400.667 30.5521V13.1583C400.667 12.8104 400.957 12.5339 401.32 12.5339H404.48C404.809 12.5482 405.071 12.8008 405.095 13.1154V15.3892H405.157C405.981 13.1917 407.531 12.1669 409.618 12.1669C411.74 12.1669 413.065 13.1917 414.018 15.3892C414.838 13.1917 416.702 12.1669 418.699 12.1669C420.119 12.1669 421.673 12.7532 422.622 14.0688C423.695 15.5322 423.475 17.6581 423.475 19.5219L423.47 30.4997C423.47 30.8476 423.18 31.1289 422.817 31.1289H419.433C419.095 31.105 418.823 30.8333 418.823 30.4997V21.2808C418.823 20.5468 418.89 18.7163 418.728 18.0204C418.475 16.8526 417.717 16.5236 416.735 16.5236C415.915 16.5236 415.057 17.0718 414.709 17.9489C414.361 18.826 414.395 20.2941 414.395 21.2808V30.4997C414.395 30.8476 414.104 31.1289 413.742 31.1289H410.357C410.014 31.105 409.747 30.8333 409.747 30.4997L409.742 21.2808C409.742 19.3408 410.062 16.4855 407.655 16.4855C405.219 16.4855 405.314 19.2693 405.314 21.2808V30.4997C405.314 30.8476 405.023 31.1289 404.661 31.1289Z" fill="#89898B"/>
<path fill-rule="evenodd" clip-rule="evenodd" d="M467.3 12.1669C472.329 12.1669 475.051 16.4855 475.051 21.9768C475.051 27.2821 472.043 31.4911 467.3 31.4911C462.362 31.4911 459.674 27.1725 459.674 21.7909C459.674 16.3759 462.395 12.1669 467.3 12.1669ZM467.329 15.7181C464.831 15.7181 464.674 19.1215 464.674 21.2427C464.674 23.3686 464.641 27.9066 467.3 27.9066C469.927 27.9066 470.051 24.2457 470.051 22.0149C470.051 20.5468 469.989 18.7926 469.545 17.4007C469.164 16.19 468.406 15.7181 467.329 15.7181Z" fill="#89898B"/>
<path fill-rule="evenodd" clip-rule="evenodd" d="M481.572 31.1289H478.197C477.859 31.105 477.587 30.8333 477.587 30.4997L477.582 13.1011C477.611 12.7818 477.892 12.5339 478.235 12.5339H481.377C481.672 12.5482 481.915 12.7484 481.982 13.0201V15.6799H482.044C482.992 13.3013 484.322 12.1669 486.663 12.1669C488.183 12.1669 489.666 12.715 490.619 14.2166C491.506 15.6084 491.506 17.9489 491.506 19.6315V30.5807C491.468 30.8858 491.186 31.1289 490.853 31.1289H487.454C487.144 31.105 486.887 30.8762 486.854 30.5807V21.1331C486.854 19.2311 487.073 16.4474 484.732 16.4474C483.908 16.4474 483.15 17.0003 482.773 17.8393C482.297 18.9022 482.235 19.9605 482.235 21.1331V30.4997C482.23 30.8476 481.934 31.1289 481.572 31.1289Z" fill="#89898B"/>
<path fill-rule="evenodd" clip-rule="evenodd" d="M436.417 22.8204C436.417 24.1408 436.45 25.2419 435.783 26.4146C435.244 27.3679 434.386 27.9542 433.438 27.9542C432.136 27.9542 431.374 26.9627 431.374 25.4993C431.374 22.6107 433.962 22.0864 436.417 22.0864V22.8204ZM439.835 31.0812C439.611 31.2814 439.286 31.2957 439.034 31.1622C437.909 30.2279 437.704 29.7942 437.089 28.9028C435.23 30.7999 433.91 31.3672 431.502 31.3672C428.647 31.3672 426.431 29.6083 426.431 26.0857C426.431 23.3353 427.918 21.4619 430.044 20.5467C431.884 19.7364 434.453 19.5934 436.417 19.3693V18.9308C436.417 18.1252 436.479 17.1719 436.002 16.476C435.592 15.8515 434.801 15.5941 434.1 15.5941C432.809 15.5941 431.66 16.2567 431.379 17.6295C431.321 17.9346 431.097 18.2349 430.787 18.2492L427.503 17.8964C427.227 17.8345 426.917 17.6104 426.998 17.1862C427.751 13.2012 431.355 12 434.577 12C436.226 12 438.381 12.4385 439.682 13.6874C441.331 15.2271 441.174 17.2815 441.174 19.5171V24.7986C441.174 26.386 441.832 27.0819 442.452 27.9399C442.666 28.245 442.714 28.612 442.437 28.8408C441.746 29.4176 440.516 30.4901 439.839 31.0907L439.835 31.0812Z" fill="#89898B"/>
<path fill-rule="evenodd" clip-rule="evenodd" d="M391.986 22.8204C391.986 24.1408 392.02 25.2419 391.352 26.4145C390.814 27.3679 389.96 27.9542 389.007 27.9542C387.706 27.9542 386.948 26.9627 386.948 25.4993C386.948 22.6107 389.536 22.0864 391.986 22.0864V22.8204ZM395.404 31.0812C395.18 31.2814 394.856 31.2957 394.603 31.1622C393.478 30.2279 393.278 29.7941 392.658 28.9028C390.799 30.7999 389.484 31.3672 387.072 31.3672C384.221 31.3672 382 29.6082 382 26.0856C382 23.3352 383.492 21.4619 385.613 20.5467C387.453 19.7364 390.022 19.5934 391.986 19.3693V18.9308C391.986 18.1252 392.048 17.1719 391.576 16.4759C391.162 15.8515 390.37 15.5941 389.674 15.5941C388.383 15.5941 387.229 16.2567 386.948 17.6295C386.891 17.9346 386.667 18.2349 386.362 18.2492L383.073 17.8964C382.796 17.8345 382.491 17.6104 382.567 17.1862C383.325 13.2012 386.924 12 390.146 12C391.796 12 393.95 12.4385 395.251 13.6874C396.901 15.2271 396.743 17.2815 396.743 19.5171V24.7986C396.743 26.3859 397.401 27.0819 398.021 27.9399C398.24 28.245 398.288 28.612 398.011 28.8408C397.32 29.4176 396.09 30.4901 395.414 31.0907L395.404 31.0812Z" fill="#89898B"/>
<path d="M578.309 13.1064V22.1942H569.962V13.1064H566V34.7997H569.962V26.0071H578.309V34.7997H582.271V13.1064H578.309Z" fill="#89898B"/>
<path d="M594.952 27.7869C594.952 28.6563 594.607 29.4901 593.992 30.1049C593.377 30.7196 592.544 31.065 591.674 31.065C590.805 31.065 589.971 30.7196 589.356 30.1049C588.741 29.4901 588.396 28.6563 588.396 27.7869V18.4953H584.638V27.7869C584.638 29.6513 585.378 31.4394 586.696 32.7578C588.015 34.0761 589.803 34.8167 591.667 34.8167C593.532 34.8167 595.32 34.0761 596.638 32.7578C597.957 31.4394 598.697 29.6513 598.697 27.7869V18.4953H594.952V27.7869Z" fill="#89898B"/>
<path d="M622.801 19.4529C622.801 17.5484 624.061 16.9446 625.441 16.9446C626.553 16.9446 628.023 17.7911 628.984 18.8181L631.446 15.9176C630.217 14.2558 627.724 13.1065 625.684 13.1065C621.607 13.1065 618.658 15.4944 618.658 19.4529C618.658 26.7973 627.635 24.4676 627.635 28.5775C627.635 29.8453 626.404 30.9655 624.994 30.9655C622.772 30.9655 622.051 29.8783 621.03 28.729L618.299 31.5693C620.046 33.7145 622.201 34.8036 624.783 34.8036C628.656 34.8036 631.772 32.3866 631.772 28.6086C631.772 20.4547 622.795 22.9882 622.795 19.4529" fill="#89898B"/>
<path d="M678.337 31.3341C676.116 31.3341 675.485 30.3731 675.485 28.9015V22.3881H678.937V19.0877H675.485V14.7331L671.674 16.4435V29.7111C671.674 33.1047 674.015 34.815 677.226 34.815C677.73 34.8242 678.233 34.7839 678.729 34.6947L679.659 31.272C679.239 31.3011 678.758 31.3302 678.337 31.3302" fill="#89898B"/>
<path d="M609.259 18.6049C607.398 18.6049 606.099 19.1446 604.843 20.3774V13.2369H601.078V26.4715C601.078 31.4259 604.66 34.8195 608.685 34.8195C613.15 34.8195 617.077 31.3658 617.077 26.7141C617.077 22.1208 613.463 18.6068 609.259 18.6068V18.6049ZM609.236 31.0318C608.391 31.0318 607.566 30.7813 606.863 30.312C606.161 29.8427 605.613 29.1757 605.29 28.3952C604.967 27.6148 604.882 26.756 605.047 25.9275C605.212 25.099 605.619 24.3379 606.216 23.7406C606.813 23.1433 607.574 22.7365 608.403 22.5717C609.231 22.4069 610.09 22.4915 610.871 22.8148C611.651 23.138 612.318 23.6855 612.787 24.3878C613.257 25.0902 613.507 25.916 613.507 26.7607C613.507 27.8935 613.057 28.9799 612.256 29.7809C611.455 30.5818 610.369 31.0318 609.236 31.0318Z" fill="#89898B"/>
<path d="M650.134 26.5153C650.134 21.8559 646.214 18.4099 641.741 18.4099C637.716 18.4099 634.134 21.8035 634.134 26.758V40.0003H637.899V32.8501C639.153 34.0809 640.454 34.6226 642.314 34.6226C646.517 34.6226 650.132 31.1106 650.132 26.5153H650.134ZM646.569 26.4687C646.569 27.3134 646.319 28.1392 645.849 28.8416C645.38 29.544 644.713 30.0914 643.933 30.4147C643.152 30.7379 642.293 30.8225 641.465 30.6577C640.636 30.4929 639.875 30.0861 639.278 29.4888C638.681 28.8915 638.274 28.1304 638.109 27.3019C637.944 26.4734 638.029 25.6146 638.352 24.8342C638.675 24.0538 639.223 23.3867 639.925 22.9174C640.628 22.4481 641.453 22.1976 642.298 22.1976C643.431 22.1976 644.517 22.6476 645.318 23.4486C646.119 24.2495 646.569 25.3359 646.569 26.4687Z" fill="#89898B"/>
<path d="M662.256 18.3496V14.6066C662.751 14.3756 663.17 14.0088 663.464 13.5489C663.758 13.089 663.916 12.555 663.918 12.009V11.9216C663.916 11.1587 663.612 10.4276 663.073 9.88807C662.533 9.34858 661.802 9.04459 661.039 9.04254H660.952C660.189 9.04459 659.458 9.34858 658.918 9.88807C658.379 10.4276 658.075 11.1587 658.073 11.9216V12.009C658.075 12.555 658.232 13.089 658.527 13.5489C658.821 14.0088 659.24 14.3756 659.734 14.6066V18.3496C658.312 18.5671 656.973 19.1565 655.852 20.0581L645.574 12.0614C645.647 11.7976 645.686 11.5256 645.69 11.2519C645.691 10.6095 645.501 9.98128 645.145 9.44673C644.789 8.91217 644.282 8.49527 643.689 8.24873C643.096 8.00219 642.443 7.93708 641.812 8.06166C641.182 8.18623 640.603 8.49487 640.148 8.94857C639.694 9.40226 639.384 9.98063 639.258 10.6105C639.131 11.2404 639.195 11.8936 639.44 12.4873C639.685 13.0811 640.101 13.5889 640.635 13.9464C641.168 14.3039 641.796 14.4952 642.438 14.496C643.003 14.4939 643.556 14.3432 644.044 14.0591L654.149 21.9257C653.239 23.2989 652.764 24.9146 652.786 26.5619C652.809 28.2091 653.328 29.8113 654.275 31.1591L651.2 34.2343C650.953 34.1557 650.696 34.1138 650.437 34.11C649.909 34.11 649.393 34.2666 648.954 34.5599C648.515 34.8532 648.173 35.2701 647.971 35.7579C647.769 36.2457 647.716 36.7824 647.819 37.3002C647.922 37.818 648.176 38.2937 648.549 38.667C648.923 39.0403 649.398 39.2946 649.916 39.3976C650.434 39.5006 650.971 39.4477 651.459 39.2457C651.946 39.0436 652.363 38.7015 652.657 38.2625C652.95 37.8235 653.106 37.3074 653.106 36.7794C653.103 36.5204 653.061 36.2633 652.982 36.0165L656.024 32.9743C657.017 33.7328 658.171 34.2544 659.396 34.4993C660.621 34.7441 661.887 34.7058 663.095 34.3871C664.303 34.0685 665.423 33.478 666.368 32.6607C667.313 31.8434 668.059 30.8209 668.549 29.6713C669.039 28.5217 669.26 27.2754 669.195 26.0275C669.129 24.7796 668.78 23.5631 668.173 22.4709C667.566 21.3786 666.717 20.4395 665.692 19.7253C664.666 19.0111 663.491 18.5405 662.256 18.3496ZM660.996 30.6621C660.164 30.6621 659.35 30.4152 658.658 29.9527C657.966 29.4902 657.426 28.8329 657.108 28.0638C656.789 27.2947 656.706 26.4484 656.868 25.632C657.031 24.8155 657.432 24.0655 658.02 23.4769C658.609 22.8883 659.359 22.4874 660.175 22.325C660.992 22.1626 661.838 22.2459 662.607 22.5645C663.376 22.8831 664.033 23.4225 664.496 24.1147C664.958 24.8069 665.205 25.6206 665.205 26.4531C665.205 27.5694 664.762 28.6399 663.973 29.4293C663.183 30.2186 662.113 30.6621 660.996 30.6621Z" fill="#89898B"/>
<path d="M840.244 13.4057C834.244 13.4057 829.361 18.3154 829.361 24.351C829.361 30.3866 834.244 35.2962 840.244 35.2962C846.243 35.2962 851.125 30.3866 851.125 24.351C851.125 18.3154 846.243 13.4057 840.244 13.4057ZM840.244 30.109C837.088 30.109 834.518 27.5231 834.518 24.351C834.518 21.1774 837.088 18.593 840.244 18.593C843.397 18.593 845.969 21.1774 845.969 24.351C845.969 27.5245 843.399 30.109 840.243 30.109H840.244ZM808.196 22.1343L806.293 21.1789C805.466 20.7674 804.948 20.4489 804.74 20.2136C804.541 20.005 804.428 19.7294 804.423 19.4413C804.423 19.0721 804.589 18.7607 804.916 18.5183C805.24 18.2646 805.7 18.1491 806.284 18.1491C807.353 18.1491 808.536 18.7945 809.84 20.0952L813.052 16.8639C812.263 15.7879 811.231 14.9139 810.04 14.3132C808.864 13.7213 807.566 13.4161 806.25 13.4226C804.29 13.4226 802.671 14.0018 801.41 15.1686C800.15 16.3354 799.516 17.7376 799.516 19.3821C799.516 21.9328 801.184 24.0579 804.532 25.7447L806.284 26.6254C807.795 27.3906 808.546 28.1699 808.546 28.976C808.546 29.4128 808.337 29.7905 807.92 30.1259C807.503 30.4627 806.951 30.6219 806.267 30.6219C805.634 30.6219 804.908 30.4035 804.09 29.9596C803.275 29.5228 802.55 28.9357 801.953 28.2291L798.758 31.7295C800.559 34.097 802.962 35.2892 805.983 35.2892C808.253 35.2892 810.065 34.6677 811.408 33.4333C812.759 32.2002 813.435 30.6557 813.435 28.8083C813.435 27.423 813.06 26.2069 812.317 25.1739C811.567 24.141 810.19 23.1348 808.196 22.1357V22.1343ZM775.883 32.9119V13.8411H770.717V15.1179C768.976 13.9978 766.95 13.4034 764.881 13.4057C758.882 13.4057 754 18.3154 754 24.351C754 30.3866 758.882 35.2962 764.882 35.2962C766.927 35.2993 768.93 34.7201 770.658 33.6263C770.658 33.794 770.649 33.9448 770.649 34.0463C770.649 37.2184 768.079 39.8043 764.924 39.8043C763.852 39.8018 762.802 39.496 761.895 38.9221L759.34 43.4217C761.025 44.4505 762.96 44.9964 764.933 45C770.934 45 775.883 40.0889 775.883 34.0533C775.883 33.8194 775.898 33.1303 775.883 32.9119ZM764.882 30.1076C761.729 30.1076 759.157 27.5231 759.157 24.351C759.157 21.1774 761.728 18.593 764.882 18.593C768.037 18.593 770.607 21.1774 770.607 24.351C770.607 27.5231 768.037 30.109 764.882 30.109V30.1076ZM796.461 13.8341H791.269V24.2396C791.278 25.7179 791.278 28.27 790.194 29.3607C789.676 29.8807 789.109 30.3513 787.915 30.3513C786.713 30.3513 786.146 29.8807 785.629 29.3607C784.544 28.2685 784.552 25.7094 784.559 24.2396V13.8341H779.369V24.2086C779.352 26.3478 779.327 30.3189 781.931 32.9541C783.458 34.4986 785.278 35.2878 787.906 35.2878C790.536 35.2878 792.355 34.5071 793.882 32.9541C796.486 30.3189 796.461 26.3393 796.444 24.2086L796.461 13.8327V13.8341ZM825.878 29.1775C825.461 29.496 824.451 30.202 823.308 30.0427C822.373 29.9159 821.614 29.2282 821.498 26.9284V18.2999H827.598V13.8172H821.498V8H816.323V9.14145H816.315V26.2492C816.315 28.9689 816.999 35.2878 823.299 35.2878C826.488 35.2385 828.423 33.5009 829.234 32.8217L829.342 32.7371L826.237 28.8928C826.229 28.8999 826.012 29.076 825.878 29.1775Z" fill="#89898B"/>
</svg>
